<svg width="32" height="32" viewBox="0 0 32 32" fill="none" xmlns="http://www.w3.org/2000/svg">
<rect width="32" height="32" rx="8" fill="#F8F8F8"/>
<g clip-path="url(#clip0_143_744)">
<path fill-rule="evenodd" clip-rule="evenodd" d="M22.9516 6.15398C22.8067 6.18261 22.5017 6.48453 22.4274 6.67303C22.3685 6.82247 22.3561 7.07489 22.3413 8.43367C22.3087 11.41 22.2907 11.7662 22.1551 12.1072C22.1119 12.216 22.1146 12.2643 22.1721 12.4101C22.2639 12.643 22.2698 13.4217 22.1803 13.497C22.0374 13.6174 20.4229 13.6287 20.3061 13.5101C20.219 13.4218 20.1896 12.9417 20.2402 12.436C20.2742 12.0964 20.2856 11.3483 20.2756 10.1032C20.2578 7.89203 20.2215 7.58031 19.9543 7.34614C19.1414 6.63333 18.5525 6.90308 18.5049 8.01015C18.4794 8.60406 18.5106 8.59923 17.9887 8.09019C16.5266 6.66408 14.5494 6.32679 13.0477 7.24741C12.7733 7.41567 12.7576 7.42 12.5978 7.37142C12.1975 7.24968 11.7698 7.63975 11.4368 8.43033C11.3488 8.63929 11.1963 8.93248 11.098 9.08184C10.9997 9.23121 10.8728 9.44713 10.816 9.56169C10.7591 9.67625 10.6713 9.80744 10.6208 9.85325C10.5703 9.89906 10.4937 10.0116 10.4507 10.1032C10.4077 10.1949 10.3131 10.3572 10.2404 10.464C10.1679 10.5708 10.0346 10.7835 9.94428 10.9368C9.85391 11.09 9.73855 11.2745 9.6878 11.3466C9.63712 11.4189 9.55123 11.5716 9.49698 11.6862C9.44273 11.8008 9.35299 11.9616 9.29755 12.0435C9.1257 12.2977 8.74056 13.0512 8.50767 13.5888C8.26484 14.1495 8.21437 14.1959 8.07178 13.9899C8.01942 13.9142 7.9616 13.8459 7.94326 13.8381C7.92492 13.8303 7.83882 13.7178 7.75188 13.5882C7.66494 13.4585 7.51759 13.259 7.42449 13.1449C7.33132 13.0308 7.25509 12.905 7.25509 12.8653C7.25509 12.7289 7.42547 12.3314 7.5017 12.29C7.54363 12.2672 7.59095 12.2064 7.60684 12.1549C7.62273 12.1032 7.76714 11.887 7.92779 11.6743C8.08844 11.4616 8.28458 11.1672 8.36361 11.0201C8.44264 10.873 8.65509 10.535 8.83576 10.269C9.60905 9.12986 9.81758 8.89093 10.2179 8.6846C10.883 8.34184 10.9356 7.51084 10.3257 6.98114C10.0051 6.70272 9.89395 6.69711 6.92665 6.81004C5.87665 6.85003 4.5372 6.89499 3.95011 6.90997L2.88268 6.93725L2.68724 7.05607C2.35061 7.26062 2.09315 7.64948 2.13928 7.88365C2.15279 7.95212 2.13354 8.12343 2.09651 8.26435L2.02924 8.52061L2.1719 8.83283C2.26612 9.03916 2.43181 9.28398 2.66022 9.55452C2.85027 9.77967 3.09268 10.0984 3.1988 10.2626C3.30492 10.427 3.43309 10.6155 3.48356 10.6815C3.53403 10.7476 3.64533 10.9069 3.7308 11.0356C3.81634 11.1643 3.97076 11.3914 4.07394 11.5404C4.17712 11.6893 4.29178 11.858 4.32867 11.9152C4.36563 11.9726 4.49415 12.1707 4.61434 12.3555C4.73453 12.5404 4.83211 12.7279 4.83127 12.7721C4.82875 12.905 4.40371 13.7233 3.93667 14.4944C3.81984 14.6873 3.72429 14.8628 3.72429 14.8845C3.72429 14.9062 3.63469 15.0859 3.52514 15.2837C2.96199 16.3012 2.59344 17.5157 2.73939 17.8732C2.9636 18.4225 3.42364 18.499 3.75642 18.0422C3.80731 17.9724 3.89978 17.8886 3.96187 17.856C4.04279 17.8135 4.17929 17.6058 4.44354 17.1233C4.64633 16.7529 4.9047 16.3091 5.01761 16.1369C5.13045 15.9648 5.25981 15.7526 5.30496 15.6653C5.35011 15.578 5.44839 15.4343 5.52336 15.346C5.59833 15.2576 5.73483 15.0666 5.82674 14.9214C6.07286 14.5328 6.19046 14.5253 6.45506 14.8817C7.3582 16.0978 7.89391 16.3589 8.98661 16.1156C9.26822 16.0529 9.63635 15.6282 9.63635 15.3659C9.63635 15.3371 9.92979 14.8305 10.0426 14.6646C10.0815 14.6074 10.1567 14.4417 10.2097 14.2964C10.2626 14.1512 10.3452 13.9731 10.3931 13.9007C10.4411 13.8282 10.5571 13.6191 10.6509 13.4357C10.8017 13.141 11.0855 12.6369 11.3075 12.2694C11.4206 12.082 11.5262 12.1056 11.5882 12.3319C11.6164 12.4349 11.688 12.6974 11.7473 12.9151C12.1288 14.3165 13.2122 15.4687 14.3349 15.6671C15.6863 15.9059 16.9954 15.4887 18.0367 14.4876C18.4038 14.1346 18.4633 14.1273 18.4633 14.4355C18.4633 14.5616 18.4815 14.6646 18.5038 14.6646C18.5261 14.6646 18.5982 14.7724 18.6641 14.9042C18.807 15.1896 18.9526 15.3381 19.2023 15.4527C19.5185 15.598 21.1309 15.5738 21.9295 15.4119C22.2227 15.3524 22.2165 15.332 22.2463 16.4683C22.2727 17.4803 22.329 18.3316 22.4078 18.9136C22.431 19.0855 22.4663 19.3955 22.4862 19.6026C22.506 19.8096 22.5411 20.0627 22.5639 20.1649C22.6288 20.4536 22.7258 21.0158 22.7938 21.4964C22.8278 21.7369 22.8743 22.0181 22.8972 22.1212C22.9201 22.2243 23.0053 22.8054 23.0866 23.4126C23.2721 24.7987 23.2784 24.8241 23.6083 25.4954C23.6758 25.6328 23.8451 25.6508 24.0226 25.5394C24.2299 25.4094 24.2588 25.3559 24.2934 25.0361C24.3158 24.8289 24.3556 24.6973 24.429 24.5879C24.6392 24.2749 24.7373 23.5232 24.6205 23.1207C24.5973 23.0407 24.56 22.769 24.5377 22.5169C24.4847 21.9185 24.3873 21.1672 24.292 20.6216C24 18.9504 23.9236 17.5772 23.9545 14.558C23.966 13.4411 23.9838 13.355 24.1814 13.4614C24.33 13.5415 25.1421 14.0432 25.5865 14.3293C27.1247 15.32 27.5321 15.553 28.1114 15.7733C28.2808 15.8377 28.467 15.9251 28.5254 15.9676C28.7321 16.1179 29.2055 16.1152 29.5287 15.9618C29.6801 15.8898 29.8357 15.831 29.8746 15.831C29.9682 15.831 30.0075 15.787 29.9643 15.7307C29.945 15.7057 29.9184 15.6139 29.9053 15.5267C29.8764 15.3364 29.2175 14.6543 28.7291 14.309C28.5682 14.1953 28.2572 13.9721 28.0379 13.8129C27.8186 13.6537 27.5171 13.4381 27.3677 13.3338C27.1172 13.1589 26.2942 12.5497 25.5763 12.0076C25.3025 11.801 25.1682 11.582 25.3152 11.582C25.4188 11.582 27.413 9.38562 27.5874 9.07929C27.6472 8.97438 27.7264 8.86309 27.7633 8.83198C27.8522 8.75705 28.0053 8.44617 28.0814 8.18572C28.1151 8.07052 28.191 7.9039 28.2502 7.8154C28.5225 7.40835 28.1448 6.79193 27.7278 6.96267C27.4386 7.081 26.6071 7.83209 25.0117 9.41595C24.4282 9.99523 24.136 10.2312 24.0767 10.1709C24.0412 10.1349 24.0487 9.63833 24.1119 7.85233C24.1409 7.02965 24.1137 6.87581 23.8924 6.61515C23.5071 6.16108 23.3372 6.07784 22.9516 6.15398ZM15.8191 8.83262C16.2972 9.02318 16.5946 9.1898 16.7856 9.37418C16.8924 9.47731 17.0258 9.59429 17.0821 9.63414C17.6681 10.0492 17.894 11.336 17.5138 12.0924C16.7957 13.5205 15.5599 14.2722 14.512 13.9184C13.4418 13.5571 12.8631 11.5717 13.4695 10.3423C13.5682 10.142 13.6922 9.85637 13.7449 9.70743C13.9159 9.22482 14.0559 9.01828 14.2398 8.9773C14.3058 8.96259 14.4114 8.90648 14.4745 8.85258C14.6742 8.68205 15.4137 8.67111 15.8191 8.83262ZM7.35547 8.87062C7.4023 8.94747 6.90999 9.79124 6.26417 10.7408C6.01049 11.114 5.93244 11.1247 5.77781 10.8078C5.72097 10.6913 5.62647 10.532 5.56788 10.4538C5.50922 10.3755 5.39246 10.1943 5.30832 10.0511C5.22418 9.90794 5.13857 9.79075 5.11806 9.79075C5.05618 9.79075 4.92101 9.48214 4.90729 9.30934C4.88888 9.07751 5.33772 8.95386 6.47508 8.87743C7.17998 8.82999 7.33006 8.82885 7.35547 8.87062ZM15.0408 10.1826C14.7302 10.2998 14.4143 10.7325 14.4541 10.9859C14.6089 11.9716 15.7069 12.4045 16.1419 11.6513C16.5871 10.8805 15.8383 9.88159 15.0408 10.1826Z" fill="#191A19"/>
</g>
<defs>
<clipPath id="clip0_143_744">
<rect width="28" height="19.7037" fill="white" transform="translate(2 6)"/>
</clipPath>
</defs>
</svg>
