<svg width="83" height="15" viewBox="0 0 168 32" fill="none" xmlns="http://www.w3.org/2000/svg">
<path d="M7.76675 29.3333L9.93341 19.9667L2.66675 13.6667L12.2667 12.8333L16.0001 4L19.7334 12.8333L29.3334 13.6667L22.0667 19.9667L24.2334 29.3333L16.0001 24.3667L7.76675 29.3333Z" fill="#191A19"/>
<path d="M41.7667 29.3333L43.9334 19.9667L36.6667 13.6667L46.2667 12.8333L50.0001 4L53.7334 12.8333L63.3334 13.6667L56.0667 19.9667L58.2334 29.3333L50.0001 24.3667L41.7667 29.3333Z" fill="#191A19"/>
<path d="M75.7667 29.3333L77.9334 19.9667L70.6667 13.6667L80.2667 12.8333L84.0001 4L87.7334 12.8333L97.3334 13.6667L90.0667 19.9667L92.2334 29.3333L84.0001 24.3667L75.7667 29.3333Z" fill="#191A19"/>
<path d="M143.767 29.3333L145.933 19.9667L138.667 13.6667L148.267 12.8333L152 4L155.733 12.8333L165.333 13.6667L158.067 19.9667L160.233 29.3333L152 24.3667L143.767 29.3333Z" fill="#191A19"/>
<path d="M109.767 29.3333L111.933 19.9667L104.667 13.6667L114.267 12.8333L118 4L121.733 12.8333L131.333 13.6667L124.067 19.9667L126.233 29.3333L118 24.3667L109.767 29.3333Z" fill="#191A19"/>
</svg>
