<svg width="1200" height="630" viewBox="0 0 1200 630" fill="none" xmlns="http://www.w3.org/2000/svg">
<rect width="1200" height="630" fill="black"/>
<path fill-rule="evenodd" clip-rule="evenodd" d="M721.898 145.691C719.347 146.192 713.977 151.469 712.669 154.764C711.632 157.376 711.413 161.788 711.152 185.538C710.579 237.561 710.261 243.787 707.875 249.747C707.113 251.649 707.161 252.493 708.173 255.04C709.79 259.111 709.894 272.722 708.317 274.039C705.802 276.142 677.376 276.34 675.318 274.268C673.785 272.723 673.268 264.333 674.159 255.494C674.758 249.558 674.957 236.481 674.781 214.719C674.468 176.071 673.828 170.622 669.125 166.529C654.811 154.07 644.442 158.785 643.605 178.135C643.155 188.516 643.705 188.431 634.517 179.534C608.772 154.607 573.959 148.712 547.518 164.803C542.687 167.744 542.411 167.82 539.598 166.971C532.549 164.843 525.019 171.661 519.156 185.479C517.605 189.132 514.921 194.256 513.191 196.867C511.46 199.478 509.226 203.252 508.225 205.254C507.224 207.257 505.677 209.549 504.789 210.35C503.899 211.151 502.55 213.117 501.794 214.719C501.036 216.321 499.37 219.158 498.091 221.025C496.813 222.892 494.466 226.61 492.876 229.289C491.285 231.967 489.254 235.191 488.361 236.453C487.468 237.715 485.956 240.385 485.001 242.388C484.046 244.39 482.466 247.201 481.489 248.633C478.464 253.077 471.682 266.247 467.582 275.643C463.306 285.443 462.418 286.255 459.907 282.654C458.985 281.332 457.967 280.137 457.644 280.001C457.321 279.864 455.805 277.898 454.275 275.632C452.744 273.365 450.149 269.879 448.51 267.884C446.87 265.889 445.527 263.691 445.527 262.997C445.527 260.613 448.527 253.666 449.87 252.942C450.608 252.544 451.441 251.481 451.721 250.58C452.001 249.677 454.543 245.899 457.372 242.18C460.2 238.462 463.654 233.317 465.045 230.746C466.437 228.175 470.177 222.267 473.359 217.616C486.974 197.706 490.646 193.53 497.694 189.924C509.406 183.932 510.331 169.408 499.592 160.149C493.947 155.283 491.99 155.185 439.745 157.159C421.257 157.857 397.673 158.643 387.336 158.905L368.542 159.382L365.101 161.459C359.174 165.034 354.64 171.831 355.453 175.924C355.691 177.121 355.352 180.115 354.7 182.578L353.515 187.057L356.027 192.515C357.686 196.121 360.603 200.4 364.625 205.129C367.971 209.064 372.239 214.634 374.108 217.506C375.976 220.378 378.233 223.673 379.122 224.828C380.01 225.982 381.97 228.767 383.475 231.016C384.981 233.266 387.7 237.236 389.517 239.839C391.333 242.442 393.352 245.391 394.002 246.391C394.652 247.393 396.915 250.856 399.031 254.087C401.148 257.318 402.866 260.596 402.851 261.368C402.807 263.692 395.323 277.995 387.1 291.473C385.043 294.843 383.36 297.911 383.36 298.291C383.36 298.671 381.783 301.81 379.854 305.269C369.938 323.052 363.449 344.281 366.019 350.529C369.967 360.13 378.067 361.467 383.926 353.484C384.822 352.263 386.45 350.798 387.543 350.229C388.968 349.486 391.371 345.856 396.024 337.422C399.595 330.948 404.144 323.19 406.132 320.181C408.119 317.173 410.396 313.463 411.191 311.938C411.986 310.412 413.717 307.901 415.037 306.356C416.357 304.812 418.76 301.474 420.378 298.936C424.712 292.143 426.782 292.013 431.441 298.241C447.343 319.497 456.775 324.06 476.015 319.808C480.973 318.712 487.455 311.29 487.455 306.705C487.455 306.201 492.621 297.346 494.608 294.447C495.293 293.447 496.617 290.55 497.55 288.012C498.482 285.473 499.936 282.359 500.779 281.094C501.624 279.828 503.666 276.172 505.317 272.968C507.973 267.816 512.97 259.004 516.878 252.581C518.87 249.306 520.73 249.718 521.82 253.674C522.317 255.475 523.578 260.062 524.622 263.867C531.34 288.362 550.416 308.501 570.183 311.969C593.977 316.143 617.027 308.852 635.361 291.352C641.825 285.184 642.873 285.056 642.873 290.442C642.873 292.646 643.193 294.447 643.585 294.447C643.977 294.447 645.247 296.332 646.408 298.635C648.923 303.623 651.488 306.218 655.884 308.222C661.45 310.761 689.841 310.339 703.903 307.508C709.064 306.469 708.956 306.112 709.48 325.973C709.946 343.661 710.935 358.542 712.323 368.715C712.732 371.719 713.353 377.137 713.703 380.757C714.052 384.375 714.67 388.799 715.073 390.586C716.214 395.631 717.922 405.459 719.119 413.858C719.718 418.063 720.538 422.978 720.941 424.779C721.344 426.582 722.844 436.739 724.275 447.351C727.541 471.578 727.653 472.023 733.46 483.757C734.649 486.158 737.63 486.472 740.756 484.525C744.406 482.254 744.914 481.318 745.523 475.729C745.917 472.106 746.619 469.806 747.912 467.895C751.612 462.423 753.339 449.285 751.282 442.25C750.874 440.851 750.218 436.102 749.824 431.696C748.891 421.237 747.177 408.104 745.498 398.567C740.358 369.358 739.013 345.356 739.556 292.584C739.759 273.062 740.072 271.556 743.551 273.416C746.168 274.816 760.467 283.585 768.291 288.586C795.374 305.902 802.548 309.975 812.748 313.826C815.73 314.952 819.01 316.479 820.036 317.221C823.676 319.848 832.012 319.801 837.702 317.12C840.368 315.862 843.107 314.834 843.793 314.834C845.441 314.834 846.133 314.064 845.371 313.081C845.033 312.644 844.564 311.039 844.332 309.516C843.825 306.19 832.223 294.267 823.623 288.231C820.79 286.244 815.314 282.342 811.453 279.56C807.593 276.777 802.283 273.009 799.653 271.187C795.243 268.129 780.753 257.481 768.111 248.007C763.291 244.394 760.926 240.567 763.514 240.567C765.339 240.567 800.451 202.177 803.522 196.822C804.574 194.989 805.968 193.043 806.618 192.5C808.183 191.19 810.879 185.756 812.22 181.204C812.813 179.19 814.15 176.278 815.191 174.731C819.986 167.616 813.336 156.842 805.993 159.826C800.902 161.895 786.262 175.023 758.171 202.707C747.897 212.832 742.752 216.956 741.708 215.903C741.082 215.272 741.215 206.594 742.327 175.377C742.839 160.997 742.359 158.308 738.463 153.752C731.678 145.816 728.687 144.361 721.898 145.691ZM596.315 192.511C604.733 195.842 609.969 198.754 613.332 201.977C615.213 203.779 617.562 205.824 618.553 206.52C628.871 213.775 632.849 236.268 626.154 249.488C613.511 274.449 591.751 287.588 573.301 281.404C554.458 275.088 544.268 240.387 554.945 218.897C556.684 215.398 558.867 210.405 559.795 207.802C562.806 199.366 565.27 195.756 568.509 195.04C569.67 194.783 571.53 193.802 572.641 192.86C576.158 189.879 589.178 189.688 596.315 192.511ZM447.295 193.175C448.119 194.518 439.451 209.266 428.08 225.864C423.614 232.387 422.239 232.574 419.517 227.035C418.516 224.999 416.852 222.215 415.821 220.846C414.788 219.478 412.732 216.312 411.25 213.809C409.769 211.306 408.262 209.258 407.9 209.258C406.811 209.258 404.431 203.864 404.189 200.843C403.865 196.791 411.768 194.63 431.794 193.294C444.205 192.465 446.848 192.445 447.295 193.175ZM582.612 216.107C577.144 218.155 571.58 225.718 572.281 230.147C575.008 247.376 594.34 254.942 602 241.778C609.838 228.305 596.653 210.845 582.612 216.107Z" fill="white"/>
</svg>
