<svg width="256" height="256" viewBox="0 0 256 256" fill="none" xmlns="http://www.w3.org/2000/svg">
<rect width="256" height="256" rx="48" fill="#F8F8F8"/>
<path fill-rule="evenodd" clip-rule="evenodd" d="M185.354 49.2504C184.169 49.4828 181.675 51.9346 181.068 53.4652C180.585 54.6787 180.484 56.7285 180.363 67.7621C180.097 91.9312 179.949 94.8236 178.841 97.5925C178.487 98.4761 178.509 98.8683 178.979 100.052C179.73 101.943 179.778 108.266 179.046 108.878C177.878 109.855 164.673 109.947 163.718 108.984C163.006 108.267 162.765 104.369 163.179 100.262C163.457 97.5048 163.55 91.4294 163.468 81.3191C163.323 63.3639 163.026 60.8326 160.841 58.931C154.192 53.1428 149.376 55.3333 148.987 64.323C148.778 69.1458 149.033 69.1065 144.765 64.973C132.807 53.3926 116.636 50.6536 104.354 58.1294C102.11 59.4957 101.982 59.5309 100.675 59.1364C97.4012 58.1478 93.9033 61.3153 91.1799 67.735C90.4597 69.4318 89.2128 71.8126 88.409 73.0255C87.6052 74.2384 86.5673 75.9917 86.1024 76.922C85.6375 77.8523 84.919 78.9175 84.5062 79.2895C84.0929 79.6615 83.4666 80.5751 83.1151 81.3191C82.763 82.0637 81.9895 83.3815 81.3953 84.249C80.8016 85.1164 79.7116 86.8437 78.973 88.0883C78.2339 89.3324 77.2905 90.8302 76.8754 91.4162C76.4609 92.0027 75.7584 93.2433 75.3148 94.1736C74.8711 95.1039 74.1371 96.4096 73.6837 97.0752C72.2782 99.1393 69.1283 105.258 67.2236 109.623C65.2376 114.176 64.8248 114.553 63.6587 112.88C63.2304 112.266 62.7575 111.711 62.6076 111.648C62.4576 111.584 61.7534 110.671 61.0423 109.618C60.3313 108.565 59.1262 106.946 58.3648 106.019C57.6028 105.092 56.9793 104.071 56.9793 103.748C56.9793 102.641 58.3728 99.4133 58.9962 99.0771C59.3392 98.8919 59.7262 98.3982 59.8561 97.9795C59.9861 97.5602 61.1671 95.8046 62.481 94.0773C63.7949 92.3499 65.3991 89.9593 66.0454 88.7649C66.6918 87.5704 68.4293 84.8257 69.9069 82.6652C76.2313 73.4154 77.9368 71.4752 81.2109 69.7998C86.6508 67.0164 87.0808 60.2685 82.0926 55.9672C79.4705 53.7063 78.5614 53.6608 54.2931 54.5778C45.7056 54.9025 34.7508 55.2676 29.9493 55.3893L21.2192 55.6107L19.6208 56.5756C16.8677 58.2366 14.762 61.3943 15.1393 63.2958C15.2498 63.8518 15.0923 65.2429 14.7895 66.3872L14.2393 68.4681L15.4061 71.0035C16.1767 72.6789 17.5318 74.6669 19.3998 76.8638C20.9542 78.692 22.9367 81.2799 23.8046 82.6139C24.6726 83.9485 25.7208 85.4792 26.1336 86.0155C26.5464 86.5519 27.4566 87.8455 28.1556 88.8906C28.8552 89.9357 30.1182 91.7801 30.962 92.9895C31.8059 94.1989 32.7437 95.5687 33.0454 96.0336C33.3477 96.499 34.3988 98.1075 35.3817 99.6088C36.3647 101.11 37.1628 102.633 37.1559 102.991C37.1353 104.071 33.6591 110.716 29.8394 116.977C28.8839 118.543 28.1024 119.968 28.1024 120.145C28.1024 120.321 27.3696 121.78 26.4736 123.387C21.8679 131.649 18.8537 141.511 20.0473 144.414C21.881 148.874 25.6435 149.495 28.3652 145.786C28.7814 145.219 29.5377 144.539 30.0455 144.274C30.7073 143.929 31.8237 142.243 33.9848 138.324C35.6434 135.317 37.7565 131.713 38.6799 130.315C39.6028 128.917 40.6608 127.194 41.03 126.485C41.3993 125.776 42.2031 124.61 42.8162 123.892C43.4294 123.175 44.5458 121.624 45.2974 120.445C47.3104 117.289 48.2722 117.228 50.4362 120.122C57.8226 129.997 62.2039 132.117 71.1407 130.142C73.4438 129.632 76.4546 126.184 76.4546 124.054C76.4546 123.82 78.8545 119.706 79.7774 118.359C80.0957 117.894 80.7106 116.549 81.144 115.369C81.5768 114.19 82.2523 112.744 82.6439 112.156C83.0361 111.568 83.9847 109.869 84.7519 108.381C85.9856 105.987 88.3065 101.893 90.1219 98.9092C91.0471 97.3878 91.911 97.5793 92.4176 99.4168C92.6483 100.254 93.234 102.385 93.7189 104.152C96.8396 115.532 105.7 124.889 114.882 126.5C125.935 128.439 136.642 125.051 145.157 116.922C148.16 114.056 148.647 113.996 148.647 116.499C148.647 117.522 148.796 118.359 148.978 118.359C149.16 118.359 149.749 119.235 150.289 120.305C151.457 122.622 152.649 123.828 154.691 124.759C157.276 125.938 170.464 125.742 176.995 124.427C179.393 123.945 179.343 123.778 179.586 133.006C179.802 141.223 180.262 148.137 180.907 152.862C181.097 154.258 181.385 156.775 181.548 158.457C181.71 160.138 181.997 162.193 182.184 163.024C182.714 165.367 183.508 169.933 184.063 173.835C184.342 175.789 184.722 178.072 184.91 178.909C185.097 179.746 185.794 184.465 186.458 189.395C187.975 200.651 188.027 200.857 190.725 206.309C191.277 207.424 192.662 207.57 194.114 206.666C195.809 205.61 196.045 205.176 196.328 202.579C196.511 200.896 196.837 199.827 197.438 198.94C199.156 196.397 199.959 190.294 199.003 187.025C198.814 186.375 198.509 184.169 198.326 182.122C197.893 177.263 197.096 171.162 196.317 166.731C193.929 153.161 193.304 142.01 193.557 117.494C193.65 108.424 193.796 107.725 195.412 108.589C196.628 109.239 203.27 113.313 206.904 115.637C219.484 123.681 222.817 125.573 227.555 127.362C228.939 127.885 230.463 128.595 230.94 128.94C232.63 130.16 236.503 130.138 239.145 128.892C240.384 128.308 241.656 127.831 241.975 127.831C242.74 127.831 243.062 127.473 242.708 127.016C242.551 126.813 242.333 126.068 242.225 125.36C241.99 123.815 236.601 118.276 232.606 115.472C231.29 114.548 228.746 112.736 226.953 111.443C225.16 110.15 222.693 108.4 221.472 107.553C219.423 106.132 212.692 101.186 206.82 96.7839C204.581 95.1056 203.483 93.3275 204.685 93.3275C205.533 93.3275 221.842 75.4923 223.269 73.0048C223.758 72.1529 224.405 71.2491 224.707 70.9965C225.434 70.3881 226.686 67.8637 227.309 65.7487C227.584 64.8133 228.205 63.4602 228.689 62.7416C230.916 59.4363 227.828 54.4307 224.417 55.8172C222.052 56.7781 215.252 62.8771 202.203 75.7385C197.431 80.4424 195.041 82.3584 194.556 81.8693C194.265 81.5763 194.327 77.5443 194.844 63.0415C195.081 56.3611 194.858 55.1118 193.049 52.9952C189.897 49.3081 188.508 48.6321 185.354 49.2504ZM127.021 71.0017C130.931 72.5491 133.363 73.9022 134.925 75.3994C135.799 76.2368 136.89 77.1867 137.35 77.5103C142.143 80.8808 143.991 91.3302 140.881 97.472C135.008 109.069 124.901 115.173 116.33 112.299C107.578 109.366 102.845 93.2439 107.804 83.2604C108.612 81.6346 109.626 79.3149 110.057 78.1055C111.456 74.1865 112.6 72.5093 114.104 72.1765C114.644 72.0572 115.508 71.6015 116.024 71.1638C117.657 69.779 123.705 69.6902 127.021 71.0017ZM57.8003 71.3103C58.1833 71.9343 54.1569 78.786 48.875 86.4971C46.8003 89.5273 46.1619 89.6144 44.8973 87.041C44.4324 86.0951 43.6595 84.8015 43.1803 84.1659C42.7006 83.5303 41.7457 82.0591 41.0575 80.8963C40.3694 79.7336 39.6692 78.782 39.5015 78.782C38.9954 78.782 37.8899 76.2761 37.7777 74.8728C37.6271 72.9903 41.298 71.9862 50.5999 71.3656C56.365 70.9804 57.5925 70.9712 57.8003 71.3103ZM120.656 81.9639C118.115 82.9155 115.531 86.4291 115.857 88.4869C117.123 96.4909 126.103 100.006 129.661 93.8904C133.302 87.631 127.178 79.5197 120.656 81.9639Z" fill="#191A19"/>
</svg>
